HIERARCHY
ROOT Hips
{
  OFFSET -5.66989 14.5892 -1.04108
  CHANNELS 6 Xposition Yposition Zposition Zrotation Xrotation Yrotation
  JOINT Bip01_Pelvis
  {
    OFFSET 0 0 0
    CHANNELS 6 Xposition Yposition Zposition Zrotation Xrotation Yrotation
    JOINT BN_Tail_01
    {
      OFFSET -1.93658 -0.0537033 0
      CHANNELS 6 Xposition Yposition Zposition Zrotation Xrotation Yrotation
      JOINT BN_Tail_02
      {
        OFFSET 3.80098 0 0
        CHANNELS 6 Xposition Yposition Zposition Zrotation Xrotation Yrotation
        JOINT BN_Tail_03
        {
          OFFSET 4.13452 0 0
          CHANNELS 6 Xposition Yposition Zposition Zrotation Xrotation Yrotation
          End Site
          {
            OFFSET 0 0 0
          }
        }
      }
    }
    JOINT Bip01_Spine
    {
      OFFSET 2.49484 0.4396 -0.350589
      CHANNELS 6 Xposition Yposition Zposition Zrotation Xrotation Yrotation
      JOINT Bip01_R_Thigh
      {
        OFFSET -2.36788 -0.528529 -2.17686
        CHANNELS 6 Xposition Yposition Zposition Zrotation Xrotation Yrotation
        JOINT Bip01_R_Calf
        {
          OFFSET 7.16877 0 0
          CHANNELS 6 Xposition Yposition Zposition Zrotation Xrotation Yrotation
          JOINT Bip01_R_HorseLink
          {
            OFFSET 5.71658 0 0
            CHANNELS 6 Xposition Yposition Zposition Zrotation Xrotation Yrotation
            JOINT Bip01_R_Foot
            {
              OFFSET 4.09528 0 0
              CHANNELS 6 Xposition Yposition Zposition Zrotation Xrotation Yrotation
              JOINT Bip01_R_Toe3
              {
                OFFSET 0.688901 -0.165618 -0.0515646
                CHANNELS 6 Xposition Yposition Zposition Zrotation Xrotation Yrotation
                JOINT Bip01_R_Toe3Nub
                {
                  OFFSET 2.31698 0 0
                  CHANNELS 6 Xposition Yposition Zposition Zrotation Xrotation Yrotation
                  End Site
                  {
                    OFFSET 0 0 0
                  }
                }
              }
              JOINT Bip01_R_Toe2
              {
                OFFSET 0.917067 0.515958 -0.245308
                CHANNELS 6 Xposition Yposition Zposition Zrotation Xrotation Yrotation
                JOINT Bip01_R_Toe2Nub
                {
                  OFFSET 2.54684 0 0
                  CHANNELS 6 Xposition Yposition Zposition Zrotation Xrotation Yrotation
                  End Site
                  {
                    OFFSET 0 0 0
                  }
                }
              }
              JOINT Bip01_R_Toe1
              {
                OFFSET 0.948626 0.783529 0.204368
                CHANNELS 6 Xposition Yposition Zposition Zrotation Xrotation Yrotation
                JOINT Bip01_R_Toe1Nub
                {
                  OFFSET 2.98415 0 0
                  CHANNELS 6 Xposition Yposition Zposition Zrotation Xrotation Yrotation
                  End Site
                  {
                    OFFSET 0 0 0
                  }
                }
              }
              JOINT Bip01_R_Toe0
              {
                OFFSET 0.945014 0.361084 0.455508
                CHANNELS 6 Xposition Yposition Zposition Zrotation Xrotation Yrotation
                JOINT Bip01_R_Toe0Nub
                {
                  OFFSET 2.53654 0 0
                  CHANNELS 6 Xposition Yposition Zposition Zrotation Xrotation Yrotation
                  End Site
                  {
                    OFFSET 0 0 0
                  }
                }
              }
            }
          }
        }
      }
      JOINT Bip01_L_Thigh
      {
        OFFSET -2.59706 -0.617793 2.62045
        CHANNELS 6 Xposition Yposition Zposition Zrotation Xrotation Yrotation
        JOINT Bip01_L_Calf
        {
          OFFSET 7.16876 0 0
          CHANNELS 6 Xposition Yposition Zposition Zrotation Xrotation Yrotation
          JOINT Bip01_L_HorseLink
          {
            OFFSET 5.71658 0 0
            CHANNELS 6 Xposition Yposition Zposition Zrotation Xrotation Yrotation
            JOINT Bip01_L_Foot
            {
              OFFSET 4.09528 0 0
              CHANNELS 6 Xposition Yposition Zposition Zrotation Xrotation Yrotation
              JOINT Bip01_L_Toe3
              {
                OFFSET 0.688902 -0.165618 0.0515647
                CHANNELS 6 Xposition Yposition Zposition Zrotation Xrotation Yrotation
                JOINT Bip01_L_Toe3Nub
                {
                  OFFSET 2.31698 0 0
                  CHANNELS 6 Xposition Yposition Zposition Zrotation Xrotation Yrotation
                  End Site
                  {
                    OFFSET 0 0 0
                  }
                }
              }
              JOINT Bip01_L_Toe2
              {
                OFFSET 0.917065 0.515959 0.245311
                CHANNELS 6 Xposition Yposition Zposition Zrotation Xrotation Yrotation
                JOINT Bip01_L_Toe2Nub
                {
                  OFFSET 2.54684 0 0
                  CHANNELS 6 Xposition Yposition Zposition Zrotation Xrotation Yrotation
                  End Site
                  {
                    OFFSET 0 0 0
                  }
                }
              }
              JOINT Bip01_L_Toe1
              {
                OFFSET 0.948627 0.78353 -0.204366
                CHANNELS 6 Xposition Yposition Zposition Zrotation Xrotation Yrotation
                JOINT Bip01_L_Toe1Nub
                {
                  OFFSET 2.98415 0 0
                  CHANNELS 6 Xposition Yposition Zposition Zrotation Xrotation Yrotation
                  End Site
                  {
                    OFFSET 0 0 0
                  }
                }
              }
              JOINT Bip01_L_Toe0
              {
                OFFSET 0.945014 0.361085 -0.455508
                CHANNELS 6 Xposition Yposition Zposition Zrotation Xrotation Yrotation
                JOINT Bip01_L_Toe0Nub
                {
                  OFFSET 2.53654 0 0
                  CHANNELS 6 Xposition Yposition Zposition Zrotation Xrotation Yrotation
                  End Site
                  {
                    OFFSET 0 0 0
                  }
                }
              }
            }
          }
        }
      }
      JOINT Bip01_Spine1
      {
        OFFSET 3.72608 -0.00323868 0.000187963
        CHANNELS 6 Xposition Yposition Zposition Zrotation Xrotation Yrotation
        JOINT BN_Finger_R_01
        {
          OFFSET 3.00123 -0.0843508 -4.58748
          CHANNELS 6 Xposition Yposition Zposition Zrotation Xrotation Yrotation
          JOINT BN_Finger_R_02
          {
            OFFSET 5.88015 0 0
            CHANNELS 6 Xposition Yposition Zposition Zrotation Xrotation Yrotation
            End Site
            {
              OFFSET 0 0 0
            }
          }
        }
        JOINT BN_Finger_L_01
        {
          OFFSET 3.00122 -0.0843704 4.58724
          CHANNELS 6 Xposition Yposition Zposition Zrotation Xrotation Yrotation
          JOINT BN_Finger_L_02
          {
            OFFSET 5.88015 0 0
            CHANNELS 6 Xposition Yposition Zposition Zrotation Xrotation Yrotation
            End Site
            {
              OFFSET 0 0 0
            }
          }
        }
        JOINT Bip01_Neck
        {
          OFFSET 4.13883 -0.0022707 1.01402e-005
          CHANNELS 6 Xposition Yposition Zposition Zrotation Xrotation Yrotation
          JOINT Bip01_Neck1
          {
            OFFSET 3.21838 -0.00219488 -2.03252e-005
            CHANNELS 6 Xposition Yposition Zposition Zrotation Xrotation Yrotation
            JOINT Bip01_Neck2
            {
              OFFSET 3.42188 -0.00260592 1.77622e-005
              CHANNELS 6 Xposition Yposition Zposition Zrotation Xrotation Yrotation
              JOINT Bip01_Head
              {
                OFFSET 3.32298 0 0
                CHANNELS 6 Xposition Yposition Zposition Zrotation Xrotation Yrotation
                JOINT BN_Mouth_01
                {
                  OFFSET 1.65821 0.977865 2.28871e-005
                  CHANNELS 6 Xposition Yposition Zposition Zrotation Xrotation Yrotation
                  End Site
                  {
                    OFFSET 0 0 0
                  }
                }
                JOINT Bip01_HeadNub
                {
                  OFFSET 4.48783 0 0
                  CHANNELS 6 Xposition Yposition Zposition Zrotation Xrotation Yrotation
                  End Site
                  {
                    OFFSET 0 0 0
                  }
                }
              }
            }
          }
        }
      }
    }
  }
}
MOTION
Frames:	4
Frame Time:	0.0333333
-5.66989 14.7213 -0.898977 -90 -85.5001 3.41782e-006 -9.53674e-007 3.72529e-009 -8.88178e-016 -89.9999 9.96273 -82 -1.93658 -0.0537033 -2.563e-006 23.855 -0.0310889 176.174 3.80098 9.53674e-007 3.72529e-008 -6.67244 -0.241259 -3.62153 4.13452 9.53674e-007 5.96046e-008 -3.61431 -1.00438 -3.55059 2.49484 0.4396 -0.350589 -5.24021 1.17365 -2.69017 -2.36788 -0.528529 -2.17686 -105.324 -7.91228 158.951 7.16877 -9.53674e-007 -8.88178e-016 -91.4776 -1.70679e-006 -5.06532e-006 5.71658 -3.55271e-015 -1.19209e-007 28.4833 6.03321e-007 9.37058e-006 4.09528 -1.77636e-015 1.19209e-007 -18.9644 -7.81681 10.1256 0.688901 -0.165618 -0.0515646 -172.101 -10.5977 -178.538 2.31698 2.66454e-015 -3.55271e-015 -2.30359e-006 1.26866e-006 1.05467e-005 0.917067 0.515958 -0.245308 70.029 -9.54574 20.9287 2.54684 3.55271e-015 2.66453e-015 2.48934e-007 -6.44097e-008 -6.65213e-008 0.948626 0.783529 0.204368 87.2883 0.877213 -15.5206 2.98416 -3.55271e-015 1.78814e-007 -1.66754e-006 -1.04351e-007 2.18712e-007 0.945015 0.361084 0.455508 83.2941 13.4572 -52.5004 2.53654 5.96046e-008 5.96047e-008 -4.98766e-008 5.71377e-010 2.61384e-008 -2.59706 -0.617793 2.62045 -131.791 25.0259 -167.159 7.16876 0 -4.76837e-007 -73.1009 1.87655e-007 1.15058e-005 5.71658 4.76837e-007 2.38419e-006 45.6078 1.07345e-005 -3.45008e-006 4.09528 -8.88179e-016 2.22045e-016 -24.6727 -14.9968 10.9478 0.688902 -0.165618 0.0515647 119.299 5.28119 -170.685 2.31698 9.53675e-007 1.77636e-015 -180 -1.01362e-005 -8.21922e-008 0.917065 0.515959 0.245311 82.8907 4.8689 -22.5055 2.54684 9.53675e-007 4.44089e-016 -180 -1.04109e-005 -1.02969e-005 0.948627 0.78353 -0.204366 85.6133 -1.28426 15.4878 2.98415 -4.76837e-007 1.33227e-015 -180 1.64913e-005 -9.05204e-006 0.945014 0.361085 -0.455508 88.8104 -6.7418 53.4495 2.53654 4.76837e-007 -1.66533e-015 -180 -1.34892e-006 -1.01934e-005 3.72608 -0.00323868 0.000187963 -1.0671 2.40093 -9.32556 3.00123 -0.0843507 -4.58748 18.8969 -0.253495 161.799 5.88015 3.19744e-014 2.86102e-006 2.84237 0.255321 9.78276 3.00122 -0.0843705 4.58724 -162.742 -4.79069 -13.6931 5.88015 -1.90735e-006 4.76837e-007 -5.54767 -0.212016 12.9529 4.13883 -0.0022707 1.01402e-005 -31.6721 -1.18947 3.86578 3.21838 -0.00219488 -2.03252e-005 -38.2903 1.07144 -1.29498 3.42188 -0.00260592 1.77622e-005 11.1791 -1.6116 0.0739305 3.32298 4.76837e-007 4.44089e-016 61.2187 -1.10064 -4.88103 1.65821 0.977865 2.28868e-005 -162.183 1.52588e-005 -180 4.48783 3.8147e-006 -4.21885e-015 -1.40627e-006 9.76268e-007 2.53747e-008 
-5.66989 14.6799 -0.962274 -90 -85.6454 5.00712e-005 -9.53674e-007 3.72529e-009 0 -90.6782 9.93358 -81.9062 -1.93658 -0.0537033 -2.563e-006 24.2468 -0.0435954 176.014 3.80098 9.53674e-007 3.72529e-008 -7.34541 -0.230266 -3.7298 4.13452 9.53674e-007 5.96046e-008 -4.0854 -1.0514 -3.54992 2.49484 0.4396 -0.350589 -5.16813 1.83206 -2.62198 -2.36788 -0.528529 -2.17686 -105.708 -7.46449 158.588 7.16877 -9.53674e-007 1.77636e-015 -93.4107 -1.45612e-006 -5.06282e-006 5.71658 -5.32907e-015 -1.19209e-007 30.5921 -4.12463e-006 9.13782e-007 4.09528 2.66454e-015 1.19209e-007 -23.0304 -8.60998 10.0845 0.688901 -0.165618 -0.0515646 -169.085 -10.5802 -178.501 2.31698 -1.77636e-015 1.77636e-015 -2.30359e-006 1.26866e-006 1.05467e-005 0.917067 0.515958 -0.245308 72.1213 -10.0294 20.7566 2.54684 -1.06581e-014 -4.44089e-016 2.48934e-007 -6.44097e-008 -6.65213e-008 0.948626 0.783529 0.204368 89.1309 1.11351 -15.607 2.98416 7.10543e-015 1.78814e-007 -1.66754e-006 -1.04351e-007 2.18713e-007 0.945014 0.361084 0.455508 85.6938 14.4585 -52.3095 2.53654 5.96046e-008 5.96047e-008 -1.00677e-005 5.69876e-010 3.59433e-008 -2.59706 -0.617793 2.62045 -131.037 25.2821 -167.445 7.16876 0 -4.76837e-007 -74.7267 2.02483e-005 5.98422e-006 5.71658 4.76837e-007 2.38419e-006 48.0448 1.42478e-005 -4.19431e-007 4.09528 0 8.88178e-016 -25.319 -14.8522 10.8677 0.688902 -0.165618 0.0515647 119.624 5.24564 -170.665 2.31698 9.53675e-007 8.88178e-016 -180 -1.01362e-005 -8.21922e-008 0.917065 0.515959 0.245311 83.4347 4.8689 -22.5055 2.54684 9.53675e-007 -6.66134e-016 -180 -1.04109e-005 -1.02969e-005 0.948627 0.78353 -0.204366 86.1573 -1.28425 15.4878 2.98415 -4.76837e-007 -2.44249e-015 -180 1.64913e-005 -9.05204e-006 0.945014 0.361085 -0.455508 89.3544 -6.7418 53.4495 2.53654 4.76837e-007 -1.55431e-015 -180 -1.34892e-006 -1.01934e-005 3.72608 -0.00323868 0.000187963 -1.14917 2.39517 -9.29861 3.00123 -0.0843507 -4.58748 18.9878 -0.249763 161.936 5.88015 2.13163e-014 2.86102e-006 2.59014 0.136351 9.7731 3.00122 -0.0843705 4.58724 -162.495 -4.86743 -13.6943 5.88015 -1.90735e-006 4.76837e-007 -5.46001 -0.17235 13.0145 4.13883 -0.0022707 1.01402e-005 -31.6496 -1.26539 3.85497 3.21838 -0.00219488 -2.03252e-005 -38.0807 1.10324 -1.10373 3.42188 -0.00260592 1.77622e-005 11.6611 -1.61665 0.0216835 3.32298 4.76837e-007 -4.44089e-016 61.0534 -1.1901 -4.7054 1.65821 0.977865 2.28869e-005 -162.197 1.52588e-005 -180 4.48783 3.8147e-006 -2.66454e-015 -1.40627e-006 9.76268e-007 2.53747e-008 
-5.66989 14.6359 -1.01743 -90 -85.8362 2.77737e-005 -9.53674e-007 3.72529e-009 8.88178e-016 -91.3382 9.85296 -81.8598 -1.93658 -0.0537033 -2.563e-006 24.4075 -0.0501753 175.834 3.80098 9.53674e-007 3.72529e-008 -8.23747 -0.215276 -3.85237 4.13452 9.53674e-007 5.96046e-008 -4.75149 -1.11234 -3.5465 2.49484 0.4396 -0.350589 -5.13432 2.472 -2.54056 -2.36788 -0.528529 -2.17686 -106.183 -7.06027 158.26 7.16877 -9.53674e-007 0 -95.6891 -5.84713e-006 -5.53313e-006 5.71658 -5.32907e-015 -1.19209e-007 33.2999 1.29517e-006 9.47834e-006 4.09528 5.32907e-015 1.19209e-007 -27.6857 -9.40303 9.93231 0.688901 -0.165618 -0.0515646 -166.559 -10.5319 -178.395 2.31698 3.55271e-015 -3.55271e-015 -2.30359e-006 1.26866e-006 1.05467e-005 0.917067 0.515958 -0.245308 72.0198 -11.3722 20.21 2.54684 7.10543e-015 8.88178e-016 2.48934e-007 -6.44097e-008 -6.65213e-008 0.948626 0.783529 0.204368 88.3454 1.79178 -15.8162 2.98416 8.88178e-016 1.78814e-007 -1.66754e-006 -1.04351e-007 2.18717e-007 0.945014 0.361084 0.455508 86.4327 17.2667 -51.6705 2.53654 5.96046e-008 5.96047e-008 -1.00678e-005 5.69833e-010 1.02614e-006 -2.59706 -0.617793 2.62045 -130.137 25.536 -167.805 7.16876 -3.55271e-015 -4.76837e-007 -76.4111 -2.40743e-006 1.20449e-005 5.71658 4.76837e-007 2.38419e-006 50.9349 6.38082e-006 -7.31146e-006 4.09528 8.88179e-016 -2.22045e-016 -25.9844 -14.6089 10.841 0.688902 -0.165618 0.0515647 119.308 5.14437 -170.609 2.31698 9.53675e-007 3.55271e-015 -180 -1.01362e-005 -8.21922e-008 0.917065 0.515959 0.245311 83.7345 4.86891 -22.5055 2.54684 9.53675e-007 2.66454e-015 -180 -1.04109e-005 -1.02969e-005 0.948627 0.78353 -0.204366 86.4571 -1.28426 15.4878 2.98415 -4.76837e-007 -2.22045e-015 -180 1.64913e-005 -9.05204e-006 0.945014 0.361085 -0.455508 89.6543 -6.74181 53.4495 2.53654 4.76837e-007 3.60822e-015 -180 -1.34892e-006 -1.01934e-005 3.72608 -0.00323868 0.000187963 -1.37607 2.3788 -9.22254 3.00123 -0.0843507 -4.58748 19.1244 -0.262719 162.045 5.88015 2.13163e-014 2.86102e-006 2.37662 0.0136577 9.82329 3.00122 -0.0843705 4.58724 -162.232 -4.93331 -13.6943 5.88015 -1.90735e-006 4.76837e-007 -5.20931 -0.12334 13.0676 4.13883 -0.0022707 1.01402e-005 -31.6554 -1.29925 3.82967 3.21838 -0.00219488 -2.03252e-005 -37.7358 1.10824 -0.927315 3.42188 -0.00260592 1.77622e-005 12.2078 -1.60178 -0.037028 3.32298 4.76837e-007 5.55112e-016 60.9377 -1.27317 -4.49547 1.65821 0.977865 2.28869e-005 -162.236 1.52588e-005 -180 4.48783 3.8147e-006 -3.10862e-015 -1.40627e-006 9.76268e-007 2.53747e-008 
-5.66989 14.5891 -1.06637 -90 -86.0721 2.91841e-005 -9.53674e-007 3.72529e-009 8.88178e-016 -91.9968 9.72377 -81.859 -1.93658 -0.0537033 -2.563e-006 24.3754 -0.0514578 175.668 3.80098 9.53674e-007 3.72529e-008 -9.23665 -0.198165 -3.97891 4.13452 9.53674e-007 5.96046e-008 -5.56305 -1.17853 -3.55458 2.49484 0.4396 -0.350589 -5.13602 3.10987 -2.44329 -2.36788 -0.528529 -2.17686 -106.712 -6.70703 157.969 7.16877 -9.53674e-007 1.77636e-015 -98.2616 -9.16956e-006 -6.29486e-006 5.71658 -3.55271e-015 -1.19209e-007 36.6 -2.69854e-007 6.78037e-006 4.09528 2.66454e-015 1.19209e-007 -32.9327 -10.1883 9.67316 0.688901 -0.165618 -0.0515646 -164.49 -10.4588 -178.224 2.31698 2.66454e-015 -1.77636e-015 -2.30359e-006 1.26866e-006 1.05467e-005 0.917067 0.515958 -0.245308 69.801 -13.4456 19.1381 2.54684 0 -2.66453e-015 2.48934e-007 -6.44097e-008 -6.64783e-008 0.948626 0.783529 0.204368 85.0959 2.90954 -16.0394 2.98415 7.99361e-015 1.78814e-007 3.99999e-008 -1.04351e-007 1.21871e-006 0.945014 0.361084 0.455508 85.4525 21.6982 -50.2959 2.53654 5.96046e-008 5.96047e-008 -1.00678e-005 5.69933e-010 1.02614e-006 -2.59706 -0.617793 2.62045 -129.064 25.7877 -168.245 7.16876 -3.55271e-015 -4.76837e-007 -78.1341 -6.50528e-006 1.27786e-005 5.71658 4.76837e-007 2.38419e-006 54.2213 1.26135e-005 -2.68744e-006 4.09528 -4.32987e-015 -1.33227e-015 -26.6618 -14.2745 10.848 0.688902 -0.165618 0.0515647 118.426 4.98072 -170.521 2.31698 9.53675e-007 1.11022e-015 -180 -1.01362e-005 -8.2193e-008 0.917065 0.515959 0.245311 83.8411 4.86892 -22.5055 2.54684 9.53675e-007 2.22045e-016 -180 -1.04109e-005 -1.02969e-005 0.948627 0.78353 -0.204366 86.5637 -1.28425 15.4878 2.98415 -4.76837e-007 -3.55271e-015 -180 1.64913e-005 -9.05193e-006 0.945014 0.361085 -0.455508 89.7609 -6.74178 53.4495 2.53654 4.76837e-007 -3.33067e-016 -180 -1.34892e-006 -1.01934e-005 3.72608 -0.00323868 0.000187963 -1.73928 2.35164 -9.09767 3.00123 -0.0843507 -4.58748 19.2841 -0.285304 162.134 5.88015 0 2.86102e-006 2.16444 -0.113943 9.90361 3.00122 -0.0843705 4.58724 -161.952 -4.99098 -13.6923 5.88015 -1.90735e-006 4.76837e-007 -4.8139 -0.0654823 13.1142 4.13883 -0.0022707 1.01402e-005 -31.6882 -1.29633 3.78986 3.21838 -0.00219488 -2.03252e-005 -37.2579 1.08984 -0.759258 3.42188 -0.00260592 1.77622e-005 12.8237 -1.56853 -0.10333 3.32298 4.76837e-007 -2.22045e-016 60.8654 -1.35169 -4.24869 1.65821 0.977865 2.28869e-005 -162.299 -0.00926209 -179.999 4.48783 3.8147e-006 -2.66454e-015 -1.40627e-006 9.76268e-007 2.53747e-008 
